<mxfile host="65bd71144e" modified="2020-12-10T04:03:02.706Z" agent="5.0 (Macintosh; Intel Mac OS X 10_16_0) AppleWebKit/537.36 (KHTML, like Gecko) Code/1.51.1 Chrome/83.0.4103.122 Electron/9.3.3 Safari/537.36" etag="g4rd1WJ3GPRyRb2E5qvJ" version="13.10.0" type="embed">
    <diagram name="Page-1" id="f1b7ffb7-ca1e-a977-7cf5-a751b3c06c05">
        <mxGraphModel dx="1807" dy="575" grid="1" gridSize="10" guides="1" tooltips="1" connect="1" arrows="1" fold="1" page="1" pageScale="1" pageWidth="1169" pageHeight="1654" math="0" shadow="0">
            <root>
                <mxCell id="0"/>
                <mxCell id="1" parent="0"/>
                <mxCell id="K1uKCe7THHYYGD_uXuT9-89" value="" style="whiteSpace=wrap;html=1;fillColor=#FFE45E;strokeColor=#FF6392;rounded=1;fontColor=#000000;" parent="1" vertex="1">
                    <mxGeometry x="-16" y="350" width="407" height="1090" as="geometry"/>
                </mxCell>
                <mxCell id="13" value="" style="verticalLabelPosition=bottom;verticalAlign=top;strokeWidth=1;shape=mxgraph.mockup.graphics.iconGrid;strokeColor=#FF6392;gridSize=1,1;fillColor=#FFE45E;rounded=1;fontColor=#000000;" parent="1" vertex="1">
                    <mxGeometry x="-2.5" y="667" width="380" height="350" as="geometry"/>
                </mxCell>
                <mxCell id="2" value="webタイトル" style="text;spacingTop=-5;fontSize=18;fontStyle=0;rounded=1;fontColor=#000000;" parent="1" vertex="1">
                    <mxGeometry x="51" y="397" width="100" height="20" as="geometry"/>
                </mxCell>
                <mxCell id="3" value="" style="line;strokeWidth=1;fillColor=#FFE45E;strokeColor=#FF6392;rounded=1;fontColor=#000000;" parent="1" vertex="1">
                    <mxGeometry x="1" y="427" width="380" height="10" as="geometry"/>
                </mxCell>
                <mxCell id="8" value="Article 1" style="text;spacingTop=-5;rounded=1;fontColor=#000000;" parent="1" vertex="1">
                    <mxGeometry x="1" y="668" width="50" height="20" as="geometry"/>
                </mxCell>
                <mxCell id="9" value="&lt;a&gt;おすすめ公園名①&lt;/a&gt;" style="text;spacingTop=-5;whiteSpace=wrap;align=left;fontSize=17;rounded=1;fontColor=#000000;" parent="1" vertex="1">
                    <mxGeometry x="1" y="692" width="380" height="20" as="geometry"/>
                </mxCell>
                <mxCell id="20" value="" style="verticalLabelPosition=bottom;verticalAlign=top;strokeWidth=1;shape=mxgraph.mockup.graphics.iconGrid;strokeColor=#FF6392;gridSize=1,1;fillColor=#FFE45E;rounded=1;fontColor=#000000;" parent="1" vertex="1">
                    <mxGeometry x="1" y="380" width="40" height="40" as="geometry"/>
                </mxCell>
                <mxCell id="21" value="Blog &#10;Logo" style="text;spacingTop=-5;align=center;rounded=1;fontColor=#000000;" parent="1" vertex="1">
                    <mxGeometry x="1" y="387" width="40" height="40" as="geometry"/>
                </mxCell>
                <mxCell id="25" value="" style="verticalLabelPosition=bottom;verticalAlign=top;strokeWidth=1;shape=mxgraph.mockup.graphics.iconGrid;strokeColor=#FF6392;gridSize=1,1;fillColor=#FFE45E;rounded=1;fontColor=#000000;" parent="1" vertex="1">
                    <mxGeometry x="6" y="807" width="360" height="200" as="geometry"/>
                </mxCell>
                <mxCell id="26" value="Article&#10;Picture" style="text;spacingTop=-5;align=center;verticalAlign=middle;fontSize=36;rounded=1;fontColor=#000000;" parent="1" vertex="1">
                    <mxGeometry x="6" y="812" width="360" height="200" as="geometry"/>
                </mxCell>
                <mxCell id="MANGyrltQIT4UZOGcqCj-68" value="住所：&#10;駐車場：○○台／ベンチ：　　&#10;トイレ：普通トイレの有無、多目的トイレの有無&#10;遊具：&#10;自動販売機&#10;map:Googleマップリンク" style="text;spacingTop=-5;whiteSpace=wrap;align=left;rounded=1;fontColor=#000000;" parent="1" vertex="1">
                    <mxGeometry x="1" y="718" width="380" height="80" as="geometry"/>
                </mxCell>
                <mxCell id="MANGyrltQIT4UZOGcqCj-79" value="" style="verticalLabelPosition=bottom;verticalAlign=top;strokeWidth=1;shape=mxgraph.mockup.graphics.iconGrid;strokeColor=#FF6392;gridSize=1,1;fillColor=#FFE45E;rounded=1;fontColor=#000000;" parent="1" vertex="1">
                    <mxGeometry x="1" y="1048" width="380" height="350" as="geometry"/>
                </mxCell>
                <mxCell id="MANGyrltQIT4UZOGcqCj-80" value="Article 1" style="text;spacingTop=-5;rounded=1;fontColor=#000000;" parent="1" vertex="1">
                    <mxGeometry x="1" y="1048" width="50" height="20" as="geometry"/>
                </mxCell>
                <mxCell id="MANGyrltQIT4UZOGcqCj-81" value="&lt;a&gt;おすすめ公園名②&lt;/a&gt;" style="text;spacingTop=-5;whiteSpace=wrap;align=left;fontSize=17;rounded=1;fontColor=#000000;" parent="1" vertex="1">
                    <mxGeometry x="1" y="1072" width="380" height="20" as="geometry"/>
                </mxCell>
                <mxCell id="MANGyrltQIT4UZOGcqCj-82" value="" style="verticalLabelPosition=bottom;verticalAlign=top;strokeWidth=1;shape=mxgraph.mockup.graphics.iconGrid;strokeColor=#FF6392;gridSize=1,1;fillColor=#FFE45E;rounded=1;fontColor=#000000;" parent="1" vertex="1">
                    <mxGeometry x="11" y="1189" width="360" height="200" as="geometry"/>
                </mxCell>
                <mxCell id="MANGyrltQIT4UZOGcqCj-83" value="Article&#10;Picture" style="text;spacingTop=-5;align=center;verticalAlign=middle;fontSize=36;rounded=1;fontColor=#000000;" parent="1" vertex="1">
                    <mxGeometry x="11" y="1194" width="360" height="200" as="geometry"/>
                </mxCell>
                <mxCell id="MANGyrltQIT4UZOGcqCj-84" value="住所：&#10;駐車場：○○台／ベンチ：　　&#10;トイレ：普通トイレの有無、多目的トイレの有無&#10;遊具：&#10;自動販売機&#10;map:Googleマップリンク" style="text;spacingTop=-5;whiteSpace=wrap;align=left;rounded=1;fontColor=#000000;" parent="1" vertex="1">
                    <mxGeometry x="1" y="1098" width="380" height="80" as="geometry"/>
                </mxCell>
                <mxCell id="MANGyrltQIT4UZOGcqCj-65" value="ちいきで選ぶ" style="text;spacingTop=-5;align=center;fontSize=15;rounded=1;fontColor=#000000;" parent="1" vertex="1">
                    <mxGeometry x="1" y="440" width="94" height="20" as="geometry"/>
                </mxCell>
                <mxCell id="MANGyrltQIT4UZOGcqCj-66" value="ねんれいから選ぶ" style="text;spacingTop=-5;align=center;fontSize=15;rounded=1;fontColor=#000000;" parent="1" vertex="1">
                    <mxGeometry x="2" y="550" width="130" height="20" as="geometry"/>
                </mxCell>
                <mxCell id="K1uKCe7THHYYGD_uXuT9-32" value="0〜３さい" style="whiteSpace=wrap;html=1;align=center;fontSize=15;fillColor=#FFE45E;strokeColor=#FF6392;rounded=1;fontColor=#000000;" parent="1" vertex="1">
                    <mxGeometry x="8" y="572" width="74.67" height="28" as="geometry"/>
                </mxCell>
                <mxCell id="K1uKCe7THHYYGD_uXuT9-33" value="さかもと" style="whiteSpace=wrap;html=1;align=center;fontSize=15;fillColor=#FFE45E;strokeColor=#FF6392;rounded=1;fontColor=#000000;" parent="1" vertex="1">
                    <mxGeometry x="1" y="505" width="80" height="30" as="geometry"/>
                </mxCell>
                <mxCell id="K1uKCe7THHYYGD_uXuT9-34" value="かがみ" style="whiteSpace=wrap;html=1;align=center;fontSize=15;fillColor=#FFE45E;strokeColor=#FF6392;rounded=1;fontColor=#000000;" parent="1" vertex="1">
                    <mxGeometry x="104" y="465" width="80" height="30" as="geometry"/>
                </mxCell>
                <mxCell id="LoOEr-tiV-RRAQBdNdlS-46" style="edgeStyle=orthogonalEdgeStyle;rounded=0;orthogonalLoop=1;jettySize=auto;html=1;entryX=0.003;entryY=0.352;entryDx=0;entryDy=0;entryPerimeter=0;fontColor=#000000;fillColor=#a20025;strokeColor=#FF0000;" parent="1" source="K1uKCe7THHYYGD_uXuT9-35" target="K1uKCe7THHYYGD_uXuT9-58" edge="1">
                    <mxGeometry relative="1" as="geometry"/>
                </mxCell>
                <mxCell id="LoOEr-tiV-RRAQBdNdlS-47" value="clickすると&lt;br style=&quot;font-size: 13px;&quot;&gt;ここが変わる" style="edgeLabel;html=1;align=center;verticalAlign=middle;resizable=0;points=[];fontSize=13;labelBackgroundColor=#FFFFFF;fontColor=#FF3333;" parent="LoOEr-tiV-RRAQBdNdlS-46" vertex="1" connectable="0">
                    <mxGeometry x="-0.4331" y="-3" relative="1" as="geometry">
                        <mxPoint x="6" y="-23" as="offset"/>
                    </mxGeometry>
                </mxCell>
                <mxCell id="K1uKCe7THHYYGD_uXuT9-35" value="せんちょう" style="whiteSpace=wrap;html=1;align=center;fontSize=15;fillColor=#FFE45E;strokeColor=#FF6392;rounded=1;fontColor=#000000;" parent="1" vertex="1">
                    <mxGeometry x="201" y="465" width="80" height="30" as="geometry"/>
                </mxCell>
                <mxCell id="K1uKCe7THHYYGD_uXuT9-36" value="とうよう" style="whiteSpace=wrap;html=1;align=center;fontSize=15;fillColor=#FFE45E;strokeColor=#FF6392;rounded=1;fontColor=#000000;" parent="1" vertex="1">
                    <mxGeometry x="104" y="505" width="80" height="30" as="geometry"/>
                </mxCell>
                <mxCell id="K1uKCe7THHYYGD_uXuT9-37" value="いずみ" style="whiteSpace=wrap;html=1;align=center;fontSize=15;fillColor=#FFE45E;strokeColor=#FF6392;rounded=1;fontColor=#000000;" parent="1" vertex="1">
                    <mxGeometry x="201" y="505" width="80" height="30" as="geometry"/>
                </mxCell>
                <mxCell id="K1uKCe7THHYYGD_uXuT9-46" value="やつしろ" style="whiteSpace=wrap;html=1;align=center;fontSize=15;fillColor=#FFE45E;strokeColor=#FF6392;rounded=1;fontColor=#000000;" parent="1" vertex="1">
                    <mxGeometry x="2" y="465" width="80" height="30" as="geometry"/>
                </mxCell>
                <mxCell id="K1uKCe7THHYYGD_uXuT9-47" value="4〜6さい" style="whiteSpace=wrap;html=1;align=center;fontSize=15;fillColor=#FFE45E;strokeColor=#FF6392;rounded=1;fontColor=#000000;" parent="1" vertex="1">
                    <mxGeometry x="104" y="572" width="80" height="30" as="geometry"/>
                </mxCell>
                <mxCell id="K1uKCe7THHYYGD_uXuT9-48" value="小がっこう&lt;br&gt;1年〜3年生" style="whiteSpace=wrap;html=1;align=center;fontSize=15;fillColor=#FFE45E;strokeColor=#FF6392;rounded=1;fontColor=#000000;" parent="1" vertex="1">
                    <mxGeometry x="211" y="570" width="100" height="40" as="geometry"/>
                </mxCell>
                <mxCell id="K1uKCe7THHYYGD_uXuT9-49" value="小がっこう&lt;br&gt;4年〜6年生" style="whiteSpace=wrap;html=1;align=center;fontSize=15;fillColor=#FFE45E;strokeColor=#FF6392;rounded=1;fontColor=#000000;" parent="1" vertex="1">
                    <mxGeometry x="8" y="610" width="80" height="40" as="geometry"/>
                </mxCell>
                <mxCell id="K1uKCe7THHYYGD_uXuT9-50" value="中学生" style="whiteSpace=wrap;html=1;align=center;fontSize=15;fillColor=#FFE45E;strokeColor=#FF6392;rounded=1;fontColor=#000000;" parent="1" vertex="1">
                    <mxGeometry x="104" y="620" width="80" height="30" as="geometry"/>
                </mxCell>
                <mxCell id="K1uKCe7THHYYGD_uXuT9-58" value="" style="whiteSpace=wrap;html=1;absoluteArcSize=1;arcSize=14;strokeWidth=2;fontStyle=1;fillColor=#FFE45E;strokeColor=#FF6392;rounded=1;fontColor=#000000;" parent="1" vertex="1">
                    <mxGeometry x="490" y="10" width="370" height="1000" as="geometry"/>
                </mxCell>
                <mxCell id="K1uKCe7THHYYGD_uXuT9-63" value="" style="line;strokeWidth=1;fillColor=#FFE45E;strokeColor=#FF6392;rounded=1;fontColor=#000000;" parent="1" vertex="1">
                    <mxGeometry x="492" y="80" width="348" height="10" as="geometry"/>
                </mxCell>
                <mxCell id="K1uKCe7THHYYGD_uXuT9-71" value="" style="group;rounded=1;fontColor=#000000;" parent="1" vertex="1" connectable="0">
                    <mxGeometry x="460" y="310" width="520" height="310" as="geometry"/>
                </mxCell>
                <mxCell id="K1uKCe7THHYYGD_uXuT9-67" value="" style="verticalLabelPosition=bottom;verticalAlign=top;strokeWidth=1;shape=mxgraph.mockup.graphics.iconGrid;strokeColor=#FF6392;gridSize=1,1;fillColor=#FFE45E;rounded=1;fontColor=#000000;" parent="K1uKCe7THHYYGD_uXuT9-71" vertex="1">
                    <mxGeometry x="40" width="280" height="310" as="geometry"/>
                </mxCell>
                <mxCell id="K1uKCe7THHYYGD_uXuT9-68" value="" style="group;rounded=1;fontColor=#000000;" parent="K1uKCe7THHYYGD_uXuT9-71" vertex="1" connectable="0">
                    <mxGeometry x="10" y="170" width="510" height="130" as="geometry"/>
                </mxCell>
                <mxCell id="K1uKCe7THHYYGD_uXuT9-59" value="" style="verticalLabelPosition=bottom;verticalAlign=top;strokeWidth=1;shape=mxgraph.mockup.graphics.iconGrid;strokeColor=#FF6392;gridSize=1,1;fillColor=#FFE45E;rounded=1;fontColor=#000000;" parent="K1uKCe7THHYYGD_uXuT9-68" vertex="1">
                    <mxGeometry x="40" y="0.0035207379800098393" width="260" height="129.99647926202" as="geometry"/>
                </mxCell>
                <mxCell id="K1uKCe7THHYYGD_uXuT9-60" value="Article&#10;Picture" style="text;spacingTop=-5;align=center;verticalAlign=middle;fontSize=36;rounded=1;fontColor=#000000;" parent="K1uKCe7THHYYGD_uXuT9-68" vertex="1">
                    <mxGeometry x="40" width="260" height="129.99647926202" as="geometry"/>
                </mxCell>
                <mxCell id="K1uKCe7THHYYGD_uXuT9-69" value="&lt;a&gt;八代市公園名①&lt;/a&gt;" style="text;spacingTop=-5;whiteSpace=wrap;align=left;fontSize=17;rounded=1;fontColor=#000000;" parent="K1uKCe7THHYYGD_uXuT9-71" vertex="1">
                    <mxGeometry x="50" y="18" width="260" height="20" as="geometry"/>
                </mxCell>
                <mxCell id="K1uKCe7THHYYGD_uXuT9-70" value="住所：&#10;駐車場：○○台／ベンチ：　　&#10;トイレ：普通トイレの有無、多目的トイレの有無&#10;遊具：&#10;自動販売機&#10;map:Googleマップリンク" style="text;spacingTop=-5;whiteSpace=wrap;align=left;rounded=1;fontColor=#000000;" parent="K1uKCe7THHYYGD_uXuT9-71" vertex="1">
                    <mxGeometry x="50" y="48" width="260" height="104" as="geometry"/>
                </mxCell>
                <mxCell id="K1uKCe7THHYYGD_uXuT9-87" value="" style="endArrow=none;dashed=1;html=1;fontSize=15;spacing=4;strokeColor=#FF6392;fontColor=#000000;" parent="1" edge="1">
                    <mxGeometry width="50" height="50" relative="1" as="geometry">
                        <mxPoint x="640.5" y="993" as="sourcePoint"/>
                        <mxPoint x="640" y="950" as="targetPoint"/>
                    </mxGeometry>
                </mxCell>
                <mxCell id="K1uKCe7THHYYGD_uXuT9-91" value="" style="endArrow=none;dashed=1;html=1;fontSize=15;spacing=4;strokeColor=#FF6392;fontColor=#000000;" parent="1" edge="1">
                    <mxGeometry width="50" height="50" relative="1" as="geometry">
                        <mxPoint x="164.5" y="2161" as="sourcePoint"/>
                        <mxPoint x="164" y="2118" as="targetPoint"/>
                    </mxGeometry>
                </mxCell>
                <mxCell id="K1uKCe7THHYYGD_uXuT9-92" value="" style="whiteSpace=wrap;html=1;absoluteArcSize=1;arcSize=14;strokeWidth=2;fontStyle=1;fillColor=#FFE45E;strokeColor=#FF6392;rounded=1;fontColor=#000000;" parent="1" vertex="1">
                    <mxGeometry x="1010" y="10" width="360" height="1007" as="geometry"/>
                </mxCell>
                <mxCell id="K1uKCe7THHYYGD_uXuT9-95" value="" style="line;strokeWidth=1;fillColor=#FFE45E;strokeColor=#FF6392;rounded=1;fontColor=#000000;" parent="1" vertex="1">
                    <mxGeometry x="1011" y="297" width="339" height="10" as="geometry"/>
                </mxCell>
                <mxCell id="K1uKCe7THHYYGD_uXuT9-99" value="" style="group;rounded=1;fontColor=#000000;" parent="1" vertex="1" connectable="0">
                    <mxGeometry x="1021" y="637" width="280" height="310" as="geometry"/>
                </mxCell>
                <mxCell id="K1uKCe7THHYYGD_uXuT9-100" value="" style="verticalLabelPosition=bottom;verticalAlign=top;strokeWidth=1;shape=mxgraph.mockup.graphics.iconGrid;strokeColor=#FF6392;gridSize=1,1;fillColor=#FFE45E;rounded=1;fontColor=#000000;" parent="K1uKCe7THHYYGD_uXuT9-99" vertex="1">
                    <mxGeometry width="280" height="310" as="geometry"/>
                </mxCell>
                <mxCell id="K1uKCe7THHYYGD_uXuT9-101" value="" style="group;rounded=1;fontColor=#000000;" parent="K1uKCe7THHYYGD_uXuT9-99" vertex="1" connectable="0">
                    <mxGeometry x="10" y="170" width="260" height="130" as="geometry"/>
                </mxCell>
                <mxCell id="K1uKCe7THHYYGD_uXuT9-102" value="" style="verticalLabelPosition=bottom;verticalAlign=top;strokeWidth=1;shape=mxgraph.mockup.graphics.iconGrid;strokeColor=#FF6392;gridSize=1,1;fillColor=#FFE45E;rounded=1;fontColor=#000000;" parent="K1uKCe7THHYYGD_uXuT9-101" vertex="1">
                    <mxGeometry y="0.0035207379800098393" width="260" height="129.99647926202" as="geometry"/>
                </mxCell>
                <mxCell id="K1uKCe7THHYYGD_uXuT9-103" value="Article&#10;Picture" style="text;spacingTop=-5;align=center;verticalAlign=middle;fontSize=36;rounded=1;fontColor=#000000;" parent="K1uKCe7THHYYGD_uXuT9-101" vertex="1">
                    <mxGeometry width="260" height="129.99647926202" as="geometry"/>
                </mxCell>
                <mxCell id="K1uKCe7THHYYGD_uXuT9-104" value="&lt;a&gt;０〜３才公園名②&lt;/a&gt;" style="text;spacingTop=-5;whiteSpace=wrap;align=left;fontSize=17;rounded=1;fontColor=#000000;" parent="K1uKCe7THHYYGD_uXuT9-99" vertex="1">
                    <mxGeometry x="10" y="18" width="260" height="20" as="geometry"/>
                </mxCell>
                <mxCell id="K1uKCe7THHYYGD_uXuT9-105" value="住所：&#10;駐車場：○○台／ベンチ：　　&#10;トイレ：普通トイレの有無、多目的トイレの有無&#10;遊具：&#10;自動販売機&#10;map:Googleマップリンク" style="text;spacingTop=-5;whiteSpace=wrap;align=left;rounded=1;fontColor=#000000;" parent="K1uKCe7THHYYGD_uXuT9-99" vertex="1">
                    <mxGeometry x="10" y="48" width="260" height="104" as="geometry"/>
                </mxCell>
                <mxCell id="K1uKCe7THHYYGD_uXuT9-106" value="" style="group;rounded=1;fontColor=#000000;" parent="1" vertex="1" connectable="0">
                    <mxGeometry x="1020" y="317" width="280" height="310" as="geometry"/>
                </mxCell>
                <mxCell id="K1uKCe7THHYYGD_uXuT9-107" value="" style="verticalLabelPosition=bottom;verticalAlign=top;strokeWidth=1;shape=mxgraph.mockup.graphics.iconGrid;strokeColor=#FF6392;gridSize=1,1;fillColor=#FFE45E;rounded=1;fontColor=#000000;" parent="K1uKCe7THHYYGD_uXuT9-106" vertex="1">
                    <mxGeometry width="280" height="310" as="geometry"/>
                </mxCell>
                <mxCell id="K1uKCe7THHYYGD_uXuT9-108" value="" style="group;rounded=1;fontColor=#000000;" parent="K1uKCe7THHYYGD_uXuT9-106" vertex="1" connectable="0">
                    <mxGeometry x="10" y="170" width="260" height="130" as="geometry"/>
                </mxCell>
                <mxCell id="K1uKCe7THHYYGD_uXuT9-109" value="" style="verticalLabelPosition=bottom;verticalAlign=top;strokeWidth=1;shape=mxgraph.mockup.graphics.iconGrid;strokeColor=#FF6392;gridSize=1,1;fillColor=#FFE45E;rounded=1;fontColor=#000000;" parent="K1uKCe7THHYYGD_uXuT9-108" vertex="1">
                    <mxGeometry y="0.0035207379800098393" width="260" height="129.99647926202" as="geometry"/>
                </mxCell>
                <mxCell id="K1uKCe7THHYYGD_uXuT9-110" value="Article&#10;Picture" style="text;spacingTop=-5;align=center;verticalAlign=middle;fontSize=36;rounded=1;fontColor=#000000;" parent="K1uKCe7THHYYGD_uXuT9-108" vertex="1">
                    <mxGeometry width="260" height="129.99647926202" as="geometry"/>
                </mxCell>
                <mxCell id="K1uKCe7THHYYGD_uXuT9-111" value="&lt;a&gt;０〜３才公園名①&lt;/a&gt;" style="text;spacingTop=-5;whiteSpace=wrap;align=left;fontSize=17;rounded=1;fontColor=#000000;" parent="K1uKCe7THHYYGD_uXuT9-106" vertex="1">
                    <mxGeometry x="10" y="18" width="260" height="20" as="geometry"/>
                </mxCell>
                <mxCell id="K1uKCe7THHYYGD_uXuT9-112" value="住所：&#10;駐車場：○○台／ベンチ：　　&#10;トイレ：普通トイレの有無、多目的トイレの有無&#10;遊具：&#10;自動販売機&#10;map:Googleマップリンク" style="text;spacingTop=-5;whiteSpace=wrap;align=left;rounded=1;fontColor=#000000;" parent="K1uKCe7THHYYGD_uXuT9-106" vertex="1">
                    <mxGeometry x="10" y="48" width="260" height="104" as="geometry"/>
                </mxCell>
                <mxCell id="K1uKCe7THHYYGD_uXuT9-113" value="" style="endArrow=none;dashed=1;html=1;fontSize=15;spacing=4;strokeColor=#FF6392;fontColor=#000000;" parent="1" edge="1">
                    <mxGeometry width="50" height="50" relative="1" as="geometry">
                        <mxPoint x="1165" y="1000" as="sourcePoint"/>
                        <mxPoint x="1164.5" y="957" as="targetPoint"/>
                    </mxGeometry>
                </mxCell>
                <mxCell id="K1uKCe7THHYYGD_uXuT9-73" value="" style="verticalLabelPosition=bottom;verticalAlign=top;strokeWidth=1;shape=mxgraph.mockup.graphics.iconGrid;strokeColor=#FF6392;gridSize=1,1;fillColor=#FFE45E;rounded=1;fontColor=#000000;" parent="1" vertex="1">
                    <mxGeometry x="500" y="630" width="280" height="310" as="geometry"/>
                </mxCell>
                <mxCell id="K1uKCe7THHYYGD_uXuT9-74" value="" style="group;rounded=1;fontColor=#000000;" parent="1" vertex="1" connectable="0">
                    <mxGeometry x="510" y="800" width="260" height="130" as="geometry"/>
                </mxCell>
                <mxCell id="K1uKCe7THHYYGD_uXuT9-75" value="" style="verticalLabelPosition=bottom;verticalAlign=top;strokeWidth=1;shape=mxgraph.mockup.graphics.iconGrid;strokeColor=#FF6392;gridSize=1,1;fillColor=#FFE45E;rounded=1;fontColor=#000000;" parent="K1uKCe7THHYYGD_uXuT9-74" vertex="1">
                    <mxGeometry y="0.0035207379800098393" width="260" height="129.99647926202" as="geometry"/>
                </mxCell>
                <mxCell id="K1uKCe7THHYYGD_uXuT9-76" value="Article&#10;Picture" style="text;spacingTop=-5;align=center;verticalAlign=middle;fontSize=36;rounded=1;fontColor=#000000;" parent="K1uKCe7THHYYGD_uXuT9-74" vertex="1">
                    <mxGeometry width="260" height="129.99647926202" as="geometry"/>
                </mxCell>
                <mxCell id="K1uKCe7THHYYGD_uXuT9-145" style="edgeStyle=orthogonalEdgeStyle;orthogonalLoop=1;jettySize=auto;html=1;fontSize=23;entryX=-0.01;entryY=0.131;entryDx=0;entryDy=0;entryPerimeter=0;fontColor=#000000;fillColor=#a20025;strokeColor=#FF0000;" parent="1" source="K1uKCe7THHYYGD_uXuT9-77" target="K1uKCe7THHYYGD_uXuT9-119" edge="1">
                    <mxGeometry relative="1" as="geometry">
                        <mxPoint x="420" y="990" as="targetPoint"/>
                        <Array as="points">
                            <mxPoint x="460" y="658"/>
                            <mxPoint x="460" y="1130"/>
                        </Array>
                    </mxGeometry>
                </mxCell>
                <mxCell id="K1uKCe7THHYYGD_uXuT9-146" value="click&lt;br style=&quot;font-size: 13px;&quot;&gt;別タブで開く" style="edgeLabel;html=1;align=center;verticalAlign=middle;resizable=0;points=[];fontSize=13;rounded=1;fontColor=#FF3333;labelBackgroundColor=#FFFFFF;" parent="K1uKCe7THHYYGD_uXuT9-145" vertex="1" connectable="0">
                    <mxGeometry x="0.0626" relative="1" as="geometry">
                        <mxPoint x="-10" y="1" as="offset"/>
                    </mxGeometry>
                </mxCell>
                <mxCell id="K1uKCe7THHYYGD_uXuT9-77" value="&lt;a&gt;八代市公園名②&lt;/a&gt;" style="text;spacingTop=-5;whiteSpace=wrap;align=left;fontSize=17;rounded=1;fontColor=#000000;" parent="1" vertex="1">
                    <mxGeometry x="510" y="648" width="260" height="20" as="geometry"/>
                </mxCell>
                <mxCell id="K1uKCe7THHYYGD_uXuT9-78" value="住所：&#10;駐車場：○○台／ベンチ：　　&#10;トイレ：普通トイレの有無、多目的トイレの有無&#10;遊具：&#10;自動販売機&#10;map:Googleマップリンク" style="text;spacingTop=-5;whiteSpace=wrap;align=left;rounded=1;fontColor=#000000;" parent="1" vertex="1">
                    <mxGeometry x="510" y="678" width="260" height="104" as="geometry"/>
                </mxCell>
                <mxCell id="K1uKCe7THHYYGD_uXuT9-119" value="" style="whiteSpace=wrap;html=1;absoluteArcSize=1;arcSize=14;strokeWidth=2;fontStyle=1;fillColor=#FFE45E;strokeColor=#FF6392;rounded=1;fontColor=#000000;" parent="1" vertex="1">
                    <mxGeometry x="490" y="1050" width="300" height="670" as="geometry"/>
                </mxCell>
                <mxCell id="K1uKCe7THHYYGD_uXuT9-120" value="" style="line;strokeWidth=1;fillColor=#FFE45E;strokeColor=#FF6392;rounded=1;fontColor=#000000;" parent="1" vertex="1">
                    <mxGeometry x="490" y="1080" width="300" height="10" as="geometry"/>
                </mxCell>
                <mxCell id="K1uKCe7THHYYGD_uXuT9-121" value="Home" style="text;spacingTop=-5;align=center;fontSize=15;rounded=1;fontColor=#000000;" parent="1" vertex="1">
                    <mxGeometry x="493" y="1060" width="60" height="20" as="geometry"/>
                </mxCell>
                <mxCell id="K1uKCe7THHYYGD_uXuT9-122" value="ちいきで選ぶ" style="text;spacingTop=-5;align=center;fontSize=15;rounded=1;fontColor=#000000;" parent="1" vertex="1">
                    <mxGeometry x="557" y="1060" width="94" height="20" as="geometry"/>
                </mxCell>
                <mxCell id="K1uKCe7THHYYGD_uXuT9-123" value="ねんれいから選ぶ" style="text;spacingTop=-5;align=center;fontSize=15;rounded=1;fontColor=#000000;" parent="1" vertex="1">
                    <mxGeometry x="654" y="1060" width="130" height="20" as="geometry"/>
                </mxCell>
                <mxCell id="K1uKCe7THHYYGD_uXuT9-131" value="八代市公園名" style="text;spacingTop=-5;whiteSpace=wrap;align=left;fontSize=17;rounded=1;fontColor=#000000;" parent="1" vertex="1">
                    <mxGeometry x="512" y="1100" width="260" height="20" as="geometry"/>
                </mxCell>
                <mxCell id="K1uKCe7THHYYGD_uXuT9-132" value="住所：&#10;駐車場：○○台／ベンチ：　　&#10;トイレ：普通トイレの有無、多目的トイレの有無&#10;遊具：&#10;自動販売機&#10;map:Googleマップリンク" style="text;spacingTop=-5;whiteSpace=wrap;align=left;rounded=1;fontColor=#000000;" parent="1" vertex="1">
                    <mxGeometry x="510" y="1130" width="260" height="104" as="geometry"/>
                </mxCell>
                <mxCell id="K1uKCe7THHYYGD_uXuT9-134" value="" style="group;rounded=1;fontColor=#000000;" parent="1" vertex="1" connectable="0">
                    <mxGeometry x="510" y="1279" width="120" height="130" as="geometry"/>
                </mxCell>
                <mxCell id="K1uKCe7THHYYGD_uXuT9-129" value="" style="verticalLabelPosition=bottom;verticalAlign=top;strokeWidth=1;shape=mxgraph.mockup.graphics.iconGrid;strokeColor=#FF6392;gridSize=1,1;fillColor=#FFE45E;rounded=1;fontColor=#000000;" parent="K1uKCe7THHYYGD_uXuT9-134" vertex="1">
                    <mxGeometry width="120" height="130" as="geometry"/>
                </mxCell>
                <mxCell id="K1uKCe7THHYYGD_uXuT9-130" value="Article&#10;Picture" style="text;spacingTop=-5;align=center;verticalAlign=middle;fontSize=36;rounded=1;fontColor=#000000;" parent="K1uKCe7THHYYGD_uXuT9-134" vertex="1">
                    <mxGeometry width="120" height="130" as="geometry"/>
                </mxCell>
                <mxCell id="K1uKCe7THHYYGD_uXuT9-138" value="" style="group;rounded=1;fontColor=#000000;" parent="1" vertex="1" connectable="0">
                    <mxGeometry x="508" y="1559" width="260" height="130" as="geometry"/>
                </mxCell>
                <mxCell id="K1uKCe7THHYYGD_uXuT9-136" value="" style="verticalLabelPosition=bottom;verticalAlign=top;strokeWidth=1;shape=mxgraph.mockup.graphics.iconGrid;strokeColor=#FF6392;gridSize=1,1;fillColor=#FFE45E;rounded=1;fontColor=#000000;" parent="K1uKCe7THHYYGD_uXuT9-138" vertex="1">
                    <mxGeometry width="260" height="130" as="geometry"/>
                </mxCell>
                <mxCell id="K1uKCe7THHYYGD_uXuT9-137" value="アンケート機能&#10;グーグルフォームを&#10;埋め込む" style="text;spacingTop=-5;align=center;verticalAlign=middle;fontSize=23;rounded=1;fontColor=#000000;" parent="K1uKCe7THHYYGD_uXuT9-138" vertex="1">
                    <mxGeometry width="260" height="130" as="geometry"/>
                </mxCell>
                <mxCell id="K1uKCe7THHYYGD_uXuT9-139" value="" style="group;rounded=1;fontColor=#000000;" parent="1" vertex="1" connectable="0">
                    <mxGeometry x="510" y="1419" width="260" height="130" as="geometry"/>
                </mxCell>
                <mxCell id="K1uKCe7THHYYGD_uXuT9-140" value="" style="verticalLabelPosition=bottom;verticalAlign=top;strokeWidth=1;shape=mxgraph.mockup.graphics.iconGrid;strokeColor=#FF6392;gridSize=1,1;fillColor=#FFE45E;rounded=1;fontColor=#000000;" parent="K1uKCe7THHYYGD_uXuT9-139" vertex="1">
                    <mxGeometry width="260" height="130" as="geometry"/>
                </mxCell>
                <mxCell id="K1uKCe7THHYYGD_uXuT9-141" value="map" style="text;spacingTop=-5;align=center;verticalAlign=middle;fontSize=36;rounded=1;fontColor=#000000;" parent="K1uKCe7THHYYGD_uXuT9-139" vertex="1">
                    <mxGeometry width="260" height="130" as="geometry"/>
                </mxCell>
                <mxCell id="K1uKCe7THHYYGD_uXuT9-142" value="" style="group;rounded=1;fontColor=#000000;" parent="1" vertex="1" connectable="0">
                    <mxGeometry x="640" y="1279" width="120" height="130" as="geometry"/>
                </mxCell>
                <mxCell id="K1uKCe7THHYYGD_uXuT9-143" value="" style="verticalLabelPosition=bottom;verticalAlign=top;strokeWidth=1;shape=mxgraph.mockup.graphics.iconGrid;strokeColor=#FF6392;gridSize=1,1;fillColor=#FFE45E;rounded=1;fontColor=#000000;" parent="K1uKCe7THHYYGD_uXuT9-142" vertex="1">
                    <mxGeometry width="120" height="130" as="geometry"/>
                </mxCell>
                <mxCell id="K1uKCe7THHYYGD_uXuT9-144" value="Article&#10;Picture" style="text;spacingTop=-5;align=center;verticalAlign=middle;fontSize=36;rounded=1;fontColor=#000000;" parent="K1uKCe7THHYYGD_uXuT9-142" vertex="1">
                    <mxGeometry width="120" height="130" as="geometry"/>
                </mxCell>
                <mxCell id="LoOEr-tiV-RRAQBdNdlS-28" value="" style="line;strokeWidth=1;fillColor=#FFE45E;strokeColor=#FF6392;rounded=1;fontColor=#000000;" parent="1" vertex="1">
                    <mxGeometry x="-2.5" y="650" width="380" height="10" as="geometry"/>
                </mxCell>
                <mxCell id="LoOEr-tiV-RRAQBdNdlS-29" value="ちいきでえらぶ" style="text;spacingTop=-5;align=center;fontSize=15;rounded=1;fontColor=#000000;" parent="1" vertex="1">
                    <mxGeometry x="506.5" y="90" width="94" height="20" as="geometry"/>
                </mxCell>
                <mxCell id="LoOEr-tiV-RRAQBdNdlS-30" value="ねんれいからえらぶ" style="text;spacingTop=-5;align=center;fontSize=15;rounded=1;fontColor=#000000;" parent="1" vertex="1">
                    <mxGeometry x="499.5" y="200" width="130" height="20" as="geometry"/>
                </mxCell>
                <mxCell id="LoOEr-tiV-RRAQBdNdlS-31" value="0〜３さい" style="whiteSpace=wrap;html=1;align=center;fontSize=15;fillColor=#FFE45E;strokeColor=#FF6392;rounded=1;fontColor=#000000;" parent="1" vertex="1">
                    <mxGeometry x="500.5" y="222" width="80" height="30" as="geometry"/>
                </mxCell>
                <mxCell id="LoOEr-tiV-RRAQBdNdlS-32" value="さかもと" style="whiteSpace=wrap;html=1;align=center;fontSize=15;fillColor=#FFE45E;strokeColor=#FF6392;rounded=1;fontColor=#000000;" parent="1" vertex="1">
                    <mxGeometry x="493.5" y="155" width="80" height="30" as="geometry"/>
                </mxCell>
                <mxCell id="LoOEr-tiV-RRAQBdNdlS-33" value="かがみ" style="whiteSpace=wrap;html=1;align=center;fontSize=15;fillColor=#FFE45E;strokeColor=#FF6392;rounded=1;fontColor=#000000;" parent="1" vertex="1">
                    <mxGeometry x="596.5" y="115" width="80" height="30" as="geometry"/>
                </mxCell>
                <mxCell id="LoOEr-tiV-RRAQBdNdlS-34" value="せんちょう" style="whiteSpace=wrap;html=1;align=center;fontSize=15;fillColor=#FFE45E;strokeColor=#FF6392;rounded=1;fontColor=#000000;" parent="1" vertex="1">
                    <mxGeometry x="693.5" y="115" width="80" height="30" as="geometry"/>
                </mxCell>
                <mxCell id="LoOEr-tiV-RRAQBdNdlS-35" value="とうよう" style="whiteSpace=wrap;html=1;align=center;fontSize=15;fillColor=#FFE45E;strokeColor=#FF6392;rounded=1;fontColor=#000000;" parent="1" vertex="1">
                    <mxGeometry x="596.5" y="155" width="80" height="30" as="geometry"/>
                </mxCell>
                <mxCell id="LoOEr-tiV-RRAQBdNdlS-36" value="いずみ" style="whiteSpace=wrap;html=1;align=center;fontSize=15;fillColor=#FFE45E;strokeColor=#FF6392;rounded=1;fontColor=#000000;" parent="1" vertex="1">
                    <mxGeometry x="693.5" y="155" width="80" height="30" as="geometry"/>
                </mxCell>
                <mxCell id="LoOEr-tiV-RRAQBdNdlS-37" value="やつしろ" style="whiteSpace=wrap;html=1;align=center;fontSize=15;fillColor=#FFE45E;strokeColor=#FF6392;rounded=1;fontColor=#000000;" parent="1" vertex="1">
                    <mxGeometry x="494.5" y="115" width="80" height="30" as="geometry"/>
                </mxCell>
                <mxCell id="LoOEr-tiV-RRAQBdNdlS-38" value="4〜6さい" style="whiteSpace=wrap;html=1;align=center;fontSize=15;fillColor=#FFE45E;strokeColor=#FF6392;rounded=1;fontColor=#000000;" parent="1" vertex="1">
                    <mxGeometry x="596.5" y="222" width="80" height="30" as="geometry"/>
                </mxCell>
                <mxCell id="LoOEr-tiV-RRAQBdNdlS-39" value="小がっこう&lt;br&gt;1年〜3年生" style="whiteSpace=wrap;html=1;align=center;fontSize=15;fillColor=#FFE45E;strokeColor=#FF6392;rounded=1;fontColor=#000000;" parent="1" vertex="1">
                    <mxGeometry x="703.5" y="220" width="100" height="40" as="geometry"/>
                </mxCell>
                <mxCell id="LoOEr-tiV-RRAQBdNdlS-40" value="小がっこう&lt;br&gt;4年〜6年生" style="whiteSpace=wrap;html=1;align=center;fontSize=15;fillColor=#FFE45E;strokeColor=#FF6392;rounded=1;fontColor=#000000;" parent="1" vertex="1">
                    <mxGeometry x="500.5" y="260" width="80" height="40" as="geometry"/>
                </mxCell>
                <mxCell id="LoOEr-tiV-RRAQBdNdlS-41" value="中学生" style="whiteSpace=wrap;html=1;align=center;fontSize=15;fillColor=#FFE45E;strokeColor=#FF6392;rounded=1;fontColor=#000000;" parent="1" vertex="1">
                    <mxGeometry x="596.5" y="270" width="80" height="30" as="geometry"/>
                </mxCell>
                <mxCell id="LoOEr-tiV-RRAQBdNdlS-42" value="" style="line;strokeWidth=1;fillColor=#FFE45E;strokeColor=#FF6392;rounded=1;fontColor=#000000;" parent="1" vertex="1">
                    <mxGeometry x="490" y="300" width="360" height="10" as="geometry"/>
                </mxCell>
                <mxCell id="LoOEr-tiV-RRAQBdNdlS-48" value="ちいきで選ぶ" style="text;spacingTop=-5;align=center;fontSize=15;rounded=1;fontColor=#000000;" parent="1" vertex="1">
                    <mxGeometry x="1013.5" y="67" width="94" height="10" as="geometry"/>
                </mxCell>
                <mxCell id="LoOEr-tiV-RRAQBdNdlS-49" value="ねんれいから選ぶ" style="text;spacingTop=-5;align=center;fontSize=15;rounded=1;fontColor=#000000;" parent="1" vertex="1">
                    <mxGeometry x="1014.5" y="187" width="130" height="20" as="geometry"/>
                </mxCell>
                <mxCell id="LoOEr-tiV-RRAQBdNdlS-50" value="0〜３さい" style="whiteSpace=wrap;html=1;align=center;fontSize=15;fillColor=#FFE45E;strokeColor=#FF6392;rounded=1;fontColor=#000000;" parent="1" vertex="1">
                    <mxGeometry x="1020.5" y="209" width="80" height="30" as="geometry"/>
                </mxCell>
                <mxCell id="LoOEr-tiV-RRAQBdNdlS-51" value="さかもと" style="whiteSpace=wrap;html=1;align=center;fontSize=15;fillColor=#FFE45E;strokeColor=#FF6392;rounded=1;fontColor=#000000;" parent="1" vertex="1">
                    <mxGeometry x="1013.5" y="142" width="80" height="30" as="geometry"/>
                </mxCell>
                <mxCell id="LoOEr-tiV-RRAQBdNdlS-52" value="かがみ" style="whiteSpace=wrap;html=1;align=center;fontSize=15;fillColor=#FFE45E;strokeColor=#FF6392;rounded=1;fontColor=#000000;" parent="1" vertex="1">
                    <mxGeometry x="1116.5" y="102" width="80" height="30" as="geometry"/>
                </mxCell>
                <mxCell id="LoOEr-tiV-RRAQBdNdlS-53" value="せんちょう" style="whiteSpace=wrap;html=1;align=center;fontSize=15;fillColor=#FFE45E;strokeColor=#FF6392;rounded=1;fontColor=#000000;" parent="1" vertex="1">
                    <mxGeometry x="1213.5" y="102" width="80" height="30" as="geometry"/>
                </mxCell>
                <mxCell id="LoOEr-tiV-RRAQBdNdlS-54" value="とうよう" style="whiteSpace=wrap;html=1;align=center;fontSize=15;fillColor=#FFE45E;strokeColor=#FF6392;rounded=1;fontColor=#000000;" parent="1" vertex="1">
                    <mxGeometry x="1116.5" y="142" width="80" height="30" as="geometry"/>
                </mxCell>
                <mxCell id="LoOEr-tiV-RRAQBdNdlS-55" value="いずみ" style="whiteSpace=wrap;html=1;align=center;fontSize=15;fillColor=#FFE45E;strokeColor=#FF6392;rounded=1;fontColor=#000000;" parent="1" vertex="1">
                    <mxGeometry x="1213.5" y="142" width="80" height="30" as="geometry"/>
                </mxCell>
                <mxCell id="LoOEr-tiV-RRAQBdNdlS-56" value="やつしろ" style="whiteSpace=wrap;html=1;align=center;fontSize=15;fillColor=#FFE45E;strokeColor=#FF6392;rounded=1;fontColor=#000000;" parent="1" vertex="1">
                    <mxGeometry x="1014.5" y="102" width="80" height="30" as="geometry"/>
                </mxCell>
                <mxCell id="LoOEr-tiV-RRAQBdNdlS-57" value="4〜6さい" style="whiteSpace=wrap;html=1;align=center;fontSize=15;fillColor=#FFE45E;strokeColor=#FF6392;rounded=1;fontColor=#000000;" parent="1" vertex="1">
                    <mxGeometry x="1116.5" y="209" width="80" height="30" as="geometry"/>
                </mxCell>
                <mxCell id="LoOEr-tiV-RRAQBdNdlS-58" value="小がっこう&lt;br&gt;1年〜3年生" style="whiteSpace=wrap;html=1;align=center;fontSize=15;fillColor=#FFE45E;strokeColor=#FF6392;rounded=1;fontColor=#000000;" parent="1" vertex="1">
                    <mxGeometry x="1223.5" y="207" width="100" height="40" as="geometry"/>
                </mxCell>
                <mxCell id="LoOEr-tiV-RRAQBdNdlS-59" value="小がっこう&lt;br&gt;4年〜6年生" style="whiteSpace=wrap;html=1;align=center;fontSize=15;fillColor=#FFE45E;strokeColor=#FF6392;rounded=1;fontColor=#000000;" parent="1" vertex="1">
                    <mxGeometry x="1020.5" y="247" width="80" height="40" as="geometry"/>
                </mxCell>
                <mxCell id="LoOEr-tiV-RRAQBdNdlS-60" value="中学生" style="whiteSpace=wrap;html=1;align=center;fontSize=15;fillColor=#FFE45E;strokeColor=#FF6392;rounded=1;fontColor=#000000;" parent="1" vertex="1">
                    <mxGeometry x="1116.5" y="257" width="80" height="30" as="geometry"/>
                </mxCell>
                <mxCell id="LoOEr-tiV-RRAQBdNdlS-62" style="edgeStyle=orthogonalEdgeStyle;rounded=0;orthogonalLoop=1;jettySize=auto;html=1;fontColor=#000000;fillColor=#a20025;strokeColor=#FF0000;" parent="1" target="K1uKCe7THHYYGD_uXuT9-92" edge="1">
                    <mxGeometry relative="1" as="geometry">
                        <mxPoint x="803.5" y="241.9966666666666" as="sourcePoint"/>
                        <mxPoint x="994.6099999999999" y="473.93" as="targetPoint"/>
                    </mxGeometry>
                </mxCell>
                <mxCell id="LoOEr-tiV-RRAQBdNdlS-63" value="clickすると&lt;br style=&quot;font-size: 13px;&quot;&gt;ここが変わる" style="edgeLabel;html=1;align=center;verticalAlign=middle;resizable=0;points=[];fontSize=13;fontColor=#FF3333;labelBackgroundColor=#FFFFFF;" parent="LoOEr-tiV-RRAQBdNdlS-62" vertex="1" connectable="0">
                    <mxGeometry x="-0.4331" y="-3" relative="1" as="geometry">
                        <mxPoint as="offset"/>
                    </mxGeometry>
                </mxCell>
                <mxCell id="LoOEr-tiV-RRAQBdNdlS-64" value="webタイトル" style="text;spacingTop=-5;fontSize=18;fontStyle=0;rounded=1;fontColor=#000000;" parent="1" vertex="1">
                    <mxGeometry x="543.5" y="47" width="230" height="20" as="geometry"/>
                </mxCell>
                <mxCell id="LoOEr-tiV-RRAQBdNdlS-65" value="Blog &#10;Logo" style="text;spacingTop=-5;align=center;rounded=1;fontColor=#000000;" parent="1" vertex="1">
                    <mxGeometry x="498" y="37" width="40" height="40" as="geometry"/>
                </mxCell>
                <mxCell id="LoOEr-tiV-RRAQBdNdlS-66" value="webタイトル" style="text;spacingTop=-5;fontSize=18;fontStyle=0;rounded=1;fontColor=#000000;" parent="1" vertex="1">
                    <mxGeometry x="1063.5" y="35" width="230" height="20" as="geometry"/>
                </mxCell>
                <mxCell id="LoOEr-tiV-RRAQBdNdlS-67" value="Blog &#10;Logo" style="text;spacingTop=-5;align=center;rounded=1;fontColor=#000000;" parent="1" vertex="1">
                    <mxGeometry x="1018" y="25" width="40" height="40" as="geometry"/>
                </mxCell>
                <mxCell id="LoOEr-tiV-RRAQBdNdlS-68" value="" style="line;strokeWidth=1;fillColor=#FFE45E;strokeColor=#FF6392;rounded=1;fontColor=#000000;" parent="1" vertex="1">
                    <mxGeometry x="1013.5" y="57" width="348" height="10" as="geometry"/>
                </mxCell>
                <mxCell id="LoOEr-tiV-RRAQBdNdlS-70" value="" style="shape=curlyBracket;whiteSpace=wrap;html=1;rounded=1;fontSize=13;direction=east;fontColor=#ffffff;fillColor=#a20025;strokeColor=#FF0000;" parent="1" vertex="1">
                    <mxGeometry x="-70" y="437" width="30" height="203" as="geometry"/>
                </mxCell>
                <mxCell id="LoOEr-tiV-RRAQBdNdlS-71" value="固定" style="text;html=1;strokeColor=none;fillColor=none;align=center;verticalAlign=middle;whiteSpace=wrap;rounded=0;fontSize=23;labelBackgroundColor=#ffffff;fontColor=#000000;" parent="1" vertex="1">
                    <mxGeometry x="-102.5" y="490" width="90" height="20" as="geometry"/>
                </mxCell>
                <mxCell id="LoOEr-tiV-RRAQBdNdlS-74" value="About" style="text;spacingTop=-5;fontSize=18;fontStyle=0;rounded=1;fontColor=#000000;" parent="1" vertex="1">
                    <mxGeometry x="306" y="397" width="60" height="20" as="geometry"/>
                </mxCell>
                <mxCell id="LoOEr-tiV-RRAQBdNdlS-77" value="" style="whiteSpace=wrap;html=1;fillColor=#FFE45E;strokeColor=#FF6392;rounded=1;fontColor=#000000;" parent="1" vertex="1">
                    <mxGeometry x="-29.5" y="4" width="407" height="306" as="geometry"/>
                </mxCell>
                <mxCell id="LoOEr-tiV-RRAQBdNdlS-78" value="webタイトル" style="text;spacingTop=-5;fontSize=18;fontStyle=0;rounded=1;fontColor=#000000;" parent="1" vertex="1">
                    <mxGeometry x="38.5" y="41" width="100" height="20" as="geometry"/>
                </mxCell>
                <mxCell id="LoOEr-tiV-RRAQBdNdlS-79" value="" style="line;strokeWidth=1;fillColor=#FFE45E;strokeColor=#FF6392;rounded=1;fontColor=#000000;" parent="1" vertex="1">
                    <mxGeometry x="-11.5" y="71" width="380" height="10" as="geometry"/>
                </mxCell>
                <mxCell id="LoOEr-tiV-RRAQBdNdlS-81" value="About" style="text;spacingTop=-5;fontSize=18;fontStyle=0;rounded=1;fontColor=#000000;" parent="1" vertex="1">
                    <mxGeometry x="293.5" y="41" width="60" height="20" as="geometry"/>
                </mxCell>
                <mxCell id="LoOEr-tiV-RRAQBdNdlS-83" value="" style="group;fontColor=#000000;" parent="1" vertex="1" connectable="0">
                    <mxGeometry x="-12.5" y="24" width="40" height="45" as="geometry"/>
                </mxCell>
                <mxCell id="LoOEr-tiV-RRAQBdNdlS-82" value="" style="verticalLabelPosition=bottom;verticalAlign=top;strokeWidth=1;shape=mxgraph.mockup.graphics.iconGrid;strokeColor=#FF6392;gridSize=1,1;fillColor=#FFE45E;rounded=1;fontColor=#000000;" parent="LoOEr-tiV-RRAQBdNdlS-83" vertex="1">
                    <mxGeometry width="40" height="40" as="geometry"/>
                </mxCell>
                <mxCell id="LoOEr-tiV-RRAQBdNdlS-80" value="Blog &#10;Logo" style="text;spacingTop=-5;align=center;rounded=1;fontColor=#000000;" parent="LoOEr-tiV-RRAQBdNdlS-83" vertex="1">
                    <mxGeometry y="5" width="40" height="40" as="geometry"/>
                </mxCell>
                <mxCell id="LoOEr-tiV-RRAQBdNdlS-84" value="このサイトの使い方（概要）" style="text;html=1;strokeColor=none;fillColor=none;align=center;verticalAlign=middle;whiteSpace=wrap;rounded=0;fontSize=23;fontColor=#000000;" parent="1" vertex="1">
                    <mxGeometry x="-5.5" y="104" width="245.5" height="40" as="geometry"/>
                </mxCell>
                <mxCell id="LoOEr-tiV-RRAQBdNdlS-92" style="edgeStyle=orthogonalEdgeStyle;rounded=0;orthogonalLoop=1;jettySize=auto;html=1;fontSize=23;fontColor=#000000;fillColor=#a20025;strokeColor=#FF0000;" parent="1" edge="1">
                    <mxGeometry relative="1" as="geometry">
                        <mxPoint x="193.48000000000002" y="254" as="sourcePoint"/>
                        <mxPoint x="202.51999999999998" y="350" as="targetPoint"/>
                    </mxGeometry>
                </mxCell>
                <mxCell id="LoOEr-tiV-RRAQBdNdlS-93" value="別タブで開く" style="edgeLabel;html=1;align=center;verticalAlign=middle;resizable=0;points=[];fontSize=18;fontColor=#FF3333;labelBackgroundColor=#FFFFFF;" parent="LoOEr-tiV-RRAQBdNdlS-92" vertex="1" connectable="0">
                    <mxGeometry x="0.5845" relative="1" as="geometry">
                        <mxPoint as="offset"/>
                    </mxGeometry>
                </mxCell>
                <mxCell id="LoOEr-tiV-RRAQBdNdlS-89" value="公園を探す" style="whiteSpace=wrap;html=1;align=center;fontSize=15;fillColor=#FFE45E;strokeColor=#FF6392;rounded=1;fontColor=#000000;" parent="1" vertex="1">
                    <mxGeometry x="39.5" y="224" width="278" height="30" as="geometry"/>
                </mxCell>
                <mxCell id="LoOEr-tiV-RRAQBdNdlS-90" value="" style="endArrow=none;dashed=1;html=1;fontSize=15;spacing=4;strokeColor=#FF6392;fontColor=#000000;" parent="1" edge="1">
                    <mxGeometry width="50" height="50" relative="1" as="geometry">
                        <mxPoint x="178.6" y="306.5" as="sourcePoint"/>
                        <mxPoint x="178.1" y="263.5" as="targetPoint"/>
                    </mxGeometry>
                </mxCell>
                <mxCell id="LoOEr-tiV-RRAQBdNdlS-98" style="edgeStyle=orthogonalEdgeStyle;rounded=0;orthogonalLoop=1;jettySize=auto;html=1;fontSize=18;fontColor=#000000;fillColor=#a20025;strokeColor=#FF0000;" parent="1" source="LoOEr-tiV-RRAQBdNdlS-97" target="LoOEr-tiV-RRAQBdNdlS-99" edge="1">
                    <mxGeometry relative="1" as="geometry">
                        <mxPoint x="840" y="1255" as="targetPoint"/>
                    </mxGeometry>
                </mxCell>
                <mxCell id="LoOEr-tiV-RRAQBdNdlS-97" value="" style="shape=mxgraph.bpmn.shape;html=1;verticalLabelPosition=bottom;labelBackgroundColor=#ffffff;verticalAlign=top;align=center;perimeter=ellipsePerimeter;outlineConnect=0;outline=standard;symbol=star;fontSize=18;fontColor=#000000;" parent="1" vertex="1">
                    <mxGeometry x="750" y="1240" width="30" height="30" as="geometry"/>
                </mxCell>
                <mxCell id="LoOEr-tiV-RRAQBdNdlS-99" value="お気に入りボタン&lt;br&gt;※ボタンのみ" style="rounded=0;whiteSpace=wrap;html=1;fontColor=#ffffff;fillColor=#a20025;strokeColor=#FF0000;" parent="1" vertex="1">
                    <mxGeometry x="850" y="1259" width="120" height="60" as="geometry"/>
                </mxCell>
                <mxCell id="LoOEr-tiV-RRAQBdNdlS-100" value="" style="shape=curlyBracket;whiteSpace=wrap;html=1;rounded=1;fontSize=13;direction=east;size=0.5;fontColor=#ffffff;fillColor=#a20025;strokeColor=#FF0000;" parent="1" vertex="1">
                    <mxGeometry x="-70" y="668" width="30" height="712" as="geometry"/>
                </mxCell>
                <mxCell id="V2ZvitWePjUtHp_5xeRo-26" value="メイン" style="text;html=1;strokeColor=none;fillColor=none;align=center;verticalAlign=middle;whiteSpace=wrap;rounded=0;labelBackgroundColor=#ffffff;fontSize=22;fontColor=#000000;" parent="1" vertex="1">
                    <mxGeometry x="-130" y="927" width="95" height="33" as="geometry"/>
                </mxCell>
                <mxCell id="27" value="" style="whiteSpace=wrap;html=1;rounded=1;fontColor=#000000;fillColor=#FFFFFF;strokeColor=#FFFFFF;" vertex="1" parent="1">
                    <mxGeometry x="-570" y="38" width="407" height="306" as="geometry"/>
                </mxCell>
                <mxCell id="28" value="" style="line;strokeWidth=1;fillColor=#FFE45E;strokeColor=#FF6392;rounded=1;fontColor=#000000;" vertex="1" parent="1">
                    <mxGeometry x="-556.5" y="109" width="380" height="10" as="geometry"/>
                </mxCell>
                <mxCell id="29" value="トップページ　デザイン" style="text;html=1;strokeColor=none;fillColor=none;align=center;verticalAlign=middle;whiteSpace=wrap;rounded=0;fontSize=20;fontStyle=1" vertex="1" parent="1">
                    <mxGeometry x="-570" y="12" width="230" height="20" as="geometry"/>
                </mxCell>
                <mxCell id="30" value="" style="group;fontColor=#000000;" vertex="1" connectable="0" parent="1">
                    <mxGeometry x="-550" y="60" width="40" height="45" as="geometry"/>
                </mxCell>
                <mxCell id="31" value="" style="verticalLabelPosition=bottom;verticalAlign=top;strokeWidth=1;shape=mxgraph.mockup.graphics.iconGrid;strokeColor=#FF6392;gridSize=1,1;fillColor=#FFE45E;rounded=1;fontColor=#000000;" vertex="1" parent="30">
                    <mxGeometry width="40" height="40" as="geometry"/>
                </mxCell>
                <mxCell id="32" value="Blog &#10;Logo" style="text;spacingTop=-5;align=center;rounded=1;fontColor=#000000;" vertex="1" parent="30">
                    <mxGeometry y="5" width="40" height="40" as="geometry"/>
                </mxCell>
                <mxCell id="34" value="webタイトル" style="text;spacingTop=-5;fontSize=18;fontStyle=0;rounded=1;fontFamily=Comic Sans MS;fontColor=#1D9ACB;" vertex="1" parent="1">
                    <mxGeometry x="-505" y="82" width="115" height="20" as="geometry"/>
                </mxCell>
                <mxCell id="35" value="About" style="text;spacingTop=-5;fontSize=18;fontStyle=0;rounded=1;fontFamily=Comic Sans MS;align=right;fontColor=#1d9acb;" vertex="1" parent="1">
                    <mxGeometry x="-300" y="84" width="115" height="20" as="geometry"/>
                </mxCell>
                <mxCell id="36" value="このサイトの使い方" style="text;spacingTop=-5;fontSize=18;fontStyle=0;rounded=1;fontFamily=Comic Sans MS;fontColor=#1D9ACB;" vertex="1" parent="1">
                    <mxGeometry x="-550" y="120" width="200" height="20" as="geometry"/>
                </mxCell>
                <mxCell id="43" style="edgeStyle=orthogonalEdgeStyle;rounded=0;orthogonalLoop=1;jettySize=auto;html=1;strokeColor=#FF0000;fontFamily=Comic Sans MS;fontSize=16;fontColor=#1D9ACB;" edge="1" parent="1" source="37">
                    <mxGeometry relative="1" as="geometry">
                        <mxPoint x="-670" y="210" as="targetPoint"/>
                    </mxGeometry>
                </mxCell>
                <mxCell id="37" value="このサイトの使い方このサイトの使い方このサイトの使い方このサイトの使い&#10;方このサイトの使い方このサイトの使い方このサイトの使い方このサイトの&#10;使い方このサイトの使い方このサイトの使い方このサイトの使い方このサイト&#10;の使い方このサイトの使い方このサイトの使い方このサイトの使い方この&#10;サイトの使い方このサイトの使い方このサイトの使い方このサイトの使い方&#10;このサイトの使い方このサイトの使い方このサイトの使い方このサイトの&#10;使い方" style="text;spacingTop=-5;fontSize=10;fontStyle=0;rounded=1;fontColor=#000000;fontFamily=Comic Sans MS;" vertex="1" parent="1">
                    <mxGeometry x="-550" y="147" width="360" height="113" as="geometry"/>
                </mxCell>
                <mxCell id="39" value="" style="rounded=1;whiteSpace=wrap;html=1;fontFamily=Comic Sans MS;fontSize=10;align=right;strokeWidth=3;fontColor=#1D9ACB;labelBackgroundColor=#FF6392;fillColor=#FFFFFF;strokeColor=#FF6392;" vertex="1" parent="1">
                    <mxGeometry x="-435" y="260" width="120" height="60" as="geometry"/>
                </mxCell>
                <mxCell id="40" value="公園を探す" style="text;html=1;align=center;verticalAlign=middle;whiteSpace=wrap;rounded=0;fontFamily=Comic Sans MS;fontSize=16;fontColor=#1D9ACB;labelBackgroundColor=#ffffff;labelBorderColor=none;" vertex="1" parent="1">
                    <mxGeometry x="-425" y="280" width="100" height="20" as="geometry"/>
                </mxCell>
                <mxCell id="42" value="" style="whiteSpace=wrap;html=1;rounded=1;fontColor=#000000;fillColor=#FFFFFF;strokeColor=#FFFFFF;" vertex="1" parent="1">
                    <mxGeometry x="-570" y="380" width="407" height="1090" as="geometry"/>
                </mxCell>
                <mxCell id="44" value="フォント&lt;br&gt;・秀英丸ゴシック&lt;br&gt;もしくは&lt;br&gt;・無料の丸文字" style="text;html=1;strokeColor=none;fillColor=none;align=center;verticalAlign=middle;whiteSpace=wrap;rounded=0;labelBackgroundColor=#ffffff;fontFamily=Comic Sans MS;fontSize=16;fontColor=#1D9ACB;" vertex="1" parent="1">
                    <mxGeometry x="-807" y="181" width="140" height="76" as="geometry"/>
                </mxCell>
                <mxCell id="45" value="" style="line;strokeWidth=1;fillColor=#FFE45E;strokeColor=#FF6392;rounded=1;fontColor=#000000;" vertex="1" parent="1">
                    <mxGeometry x="-558.5" y="454" width="380" height="10" as="geometry"/>
                </mxCell>
                <mxCell id="47" value="webタイトル" style="text;spacingTop=-5;fontSize=18;fontStyle=0;rounded=1;fontFamily=Comic Sans MS;fontColor=#1D9ACB;" vertex="1" parent="1">
                    <mxGeometry x="-505" y="423" width="115" height="20" as="geometry"/>
                </mxCell>
                <mxCell id="48" value="About" style="text;spacingTop=-5;fontSize=18;fontStyle=0;rounded=1;fontFamily=Comic Sans MS;align=right;fontColor=#1d9acb;" vertex="1" parent="1">
                    <mxGeometry x="-300" y="425" width="115" height="20" as="geometry"/>
                </mxCell>
                <mxCell id="49" value="" style="group;fontColor=#000000;" vertex="1" connectable="0" parent="1">
                    <mxGeometry x="-550" y="410" width="40" height="45" as="geometry"/>
                </mxCell>
                <mxCell id="50" value="" style="verticalLabelPosition=bottom;verticalAlign=top;strokeWidth=1;shape=mxgraph.mockup.graphics.iconGrid;strokeColor=#FF6392;gridSize=1,1;fillColor=#FFE45E;rounded=1;fontColor=#000000;" vertex="1" parent="49">
                    <mxGeometry width="40" height="40" as="geometry"/>
                </mxCell>
                <mxCell id="51" value="Blog &#10;Logo" style="text;spacingTop=-5;align=center;rounded=1;fontColor=#000000;" vertex="1" parent="49">
                    <mxGeometry y="5" width="40" height="40" as="geometry"/>
                </mxCell>
                <mxCell id="52" style="edgeStyle=orthogonalEdgeStyle;rounded=0;orthogonalLoop=1;jettySize=auto;html=1;strokeColor=#FF0000;fontFamily=Comic Sans MS;fontSize=16;fontColor=#1D9ACB;" edge="1" parent="1" source="32">
                    <mxGeometry relative="1" as="geometry">
                        <mxPoint x="-610" y="85" as="targetPoint"/>
                    </mxGeometry>
                </mxCell>
                <mxCell id="54" value="タイトルロゴは作れたら作る" style="text;html=1;strokeColor=none;fillColor=none;align=center;verticalAlign=middle;whiteSpace=wrap;rounded=0;labelBackgroundColor=#ffffff;fontFamily=Comic Sans MS;fontSize=16;fontColor=#1D9ACB;" vertex="1" parent="1">
                    <mxGeometry x="-760" y="77" width="150" height="20" as="geometry"/>
                </mxCell>
                <mxCell id="55" value="ちいきで選ぶ" style="text;spacingTop=-5;align=center;fontSize=15;rounded=1;fontColor=#000000;" vertex="1" parent="1">
                    <mxGeometry x="-551" y="465" width="94" height="20" as="geometry"/>
                </mxCell>
                <mxCell id="56" value="ねんれいから選ぶ" style="text;spacingTop=-5;align=center;fontSize=15;rounded=1;fontColor=#000000;" vertex="1" parent="1">
                    <mxGeometry x="-551" y="586" width="130" height="20" as="geometry"/>
                </mxCell>
                <mxCell id="65" value="小がっこう&lt;br&gt;１〜３ねんせい" style="whiteSpace=wrap;html=1;align=center;fontSize=15;strokeColor=#FF6392;rounded=1;fontColor=#000000;strokeWidth=3;fillColor=#FFFFFF;" vertex="1" parent="1">
                    <mxGeometry x="-300" y="608" width="115" height="40" as="geometry"/>
                </mxCell>
                <mxCell id="68" value="４〜６さい" style="whiteSpace=wrap;html=1;align=center;fontSize=15;strokeColor=#FF6392;rounded=1;fontColor=#000000;strokeWidth=3;fillColor=#FFFFFF;" vertex="1" parent="1">
                    <mxGeometry x="-425.5" y="608" width="115" height="40" as="geometry"/>
                </mxCell>
                <mxCell id="69" value="０〜３さい" style="whiteSpace=wrap;html=1;align=center;fontSize=15;strokeColor=#FF6392;rounded=1;fontColor=#000000;fillColor=#FFFFFF;strokeWidth=3;" vertex="1" parent="1">
                    <mxGeometry x="-550" y="608" width="115" height="40" as="geometry"/>
                </mxCell>
                <mxCell id="72" value="小がっこう&lt;br&gt;４年〜６年生" style="whiteSpace=wrap;html=1;align=center;fontSize=15;strokeColor=#FF6392;rounded=1;fontColor=#000000;fillColor=#FFFFFF;strokeWidth=3;" vertex="1" parent="1">
                    <mxGeometry x="-549" y="655" width="115" height="40" as="geometry"/>
                </mxCell>
                <mxCell id="77" value="中学生" style="whiteSpace=wrap;html=1;align=center;fontSize=15;strokeColor=#FF6392;rounded=1;fontColor=#000000;fillColor=#FFFFFF;strokeWidth=3;" vertex="1" parent="1">
                    <mxGeometry x="-425.5" y="655" width="115" height="40" as="geometry"/>
                </mxCell>
                <mxCell id="78" value="せんちょう" style="whiteSpace=wrap;html=1;align=center;fontSize=15;rounded=1;fontColor=#000000;strokeWidth=3;fillColor=#FFFFFF;strokeColor=#1D9ACB;" vertex="1" parent="1">
                    <mxGeometry x="-302.5" y="488" width="115" height="40" as="geometry"/>
                </mxCell>
                <mxCell id="79" value="かがみ" style="whiteSpace=wrap;html=1;align=center;fontSize=15;rounded=1;fontColor=#000000;strokeWidth=3;fillColor=#FFFFFF;strokeColor=#1D9ACB;" vertex="1" parent="1">
                    <mxGeometry x="-428" y="488" width="115" height="40" as="geometry"/>
                </mxCell>
                <mxCell id="80" value="やつしろ" style="whiteSpace=wrap;html=1;align=center;fontSize=15;rounded=1;fontColor=#000000;fillColor=#FFFFFF;strokeWidth=3;strokeColor=#1D9ACB;" vertex="1" parent="1">
                    <mxGeometry x="-552.5" y="488" width="115" height="40" as="geometry"/>
                </mxCell>
                <mxCell id="81" value="さかもと" style="whiteSpace=wrap;html=1;align=center;fontSize=15;rounded=1;fontColor=#000000;fillColor=#FFFFFF;strokeWidth=3;strokeColor=#1D9ACB;" vertex="1" parent="1">
                    <mxGeometry x="-551.5" y="535" width="115" height="40" as="geometry"/>
                </mxCell>
                <mxCell id="82" value="とうよう" style="whiteSpace=wrap;html=1;align=center;fontSize=15;rounded=1;fontColor=#000000;fillColor=#FFFFFF;strokeWidth=3;strokeColor=#1D9ACB;" vertex="1" parent="1">
                    <mxGeometry x="-428" y="535" width="115" height="40" as="geometry"/>
                </mxCell>
                <mxCell id="83" value="いずみ" style="whiteSpace=wrap;html=1;align=center;fontSize=15;rounded=1;fontColor=#000000;strokeWidth=3;fillColor=#FFFFFF;strokeColor=#1D9ACB;" vertex="1" parent="1">
                    <mxGeometry x="-303" y="535" width="115" height="40" as="geometry"/>
                </mxCell>
                <mxCell id="84" value="" style="line;strokeWidth=1;fillColor=#FFE45E;strokeColor=#FF6392;rounded=1;fontColor=#000000;" vertex="1" parent="1">
                    <mxGeometry x="-556.5" y="708" width="380" height="10" as="geometry"/>
                </mxCell>
                <mxCell id="85" value="" style="rounded=0;whiteSpace=wrap;html=1;labelBackgroundColor=#ffffff;strokeWidth=1;fillColor=#FFFFFF;fontFamily=Comic Sans MS;fontSize=16;fontColor=#1D9ACB;align=right;strokeColor=#000000;" vertex="1" parent="1">
                    <mxGeometry x="-547" y="728" width="366" height="342" as="geometry"/>
                </mxCell>
                <mxCell id="86" value="&lt;a&gt;おすすめ公園名①&lt;/a&gt;" style="text;spacingTop=-5;whiteSpace=wrap;align=left;fontSize=17;rounded=1;fontColor=#000000;fontFamily=Shuei MaruGo B;" vertex="1" parent="1">
                    <mxGeometry x="-543" y="739" width="353" height="20" as="geometry"/>
                </mxCell>
                <mxCell id="88" value="住所：&#10;駐車場：○○台／ベンチ：　　&#10;トイレ：普通トイレの有無、多目的トイレの有無&#10;遊具：&#10;自動販売機：" style="text;spacingTop=-5;whiteSpace=wrap;align=left;rounded=1;fontColor=#000000;" vertex="1" parent="1">
                    <mxGeometry x="-543" y="765" width="353" height="85" as="geometry"/>
                </mxCell>
                <mxCell id="89" value="" style="verticalLabelPosition=bottom;verticalAlign=top;strokeWidth=1;shape=mxgraph.mockup.graphics.iconGrid;strokeColor=#FF6392;gridSize=1,1;rounded=1;fontColor=#000000;fillColor=#FFFFFF;" vertex="1" parent="1">
                    <mxGeometry x="-545" y="860" width="360" height="200" as="geometry"/>
                </mxCell>
                <mxCell id="87" value="Article&#10;Picture" style="text;spacingTop=-5;align=center;verticalAlign=middle;fontSize=36;rounded=1;fontColor=#000000;" vertex="1" parent="1">
                    <mxGeometry x="-545" y="860" width="360" height="200" as="geometry"/>
                </mxCell>
                <mxCell id="91" style="edgeStyle=orthogonalEdgeStyle;rounded=0;orthogonalLoop=1;jettySize=auto;html=1;strokeColor=#FF0000;fontFamily=Comic Sans MS;fontSize=16;fontColor=#1D9ACB;entryX=1;entryY=0.75;entryDx=0;entryDy=0;" edge="1" parent="1" target="44">
                    <mxGeometry relative="1" as="geometry">
                        <mxPoint x="-660" y="510" as="targetPoint"/>
                        <mxPoint x="-560" y="504" as="sourcePoint"/>
                        <Array as="points">
                            <mxPoint x="-590" y="504"/>
                            <mxPoint x="-590" y="490"/>
                            <mxPoint x="-630" y="490"/>
                            <mxPoint x="-630" y="238"/>
                        </Array>
                    </mxGeometry>
                </mxCell>
                <mxCell id="92" value="" style="line;strokeWidth=1;fillColor=#FFE45E;strokeColor=#FF6392;rounded=1;fontColor=#000000;" vertex="1" parent="1">
                    <mxGeometry x="-554" y="1082" width="380" height="10" as="geometry"/>
                </mxCell>
                <mxCell id="96" value="" style="rounded=0;whiteSpace=wrap;html=1;labelBackgroundColor=#ffffff;strokeWidth=1;fillColor=#FFFFFF;fontFamily=Comic Sans MS;fontSize=16;fontColor=#1D9ACB;align=right;strokeColor=#000000;" vertex="1" parent="1">
                    <mxGeometry x="-548" y="1098" width="366" height="342" as="geometry"/>
                </mxCell>
                <mxCell id="97" value="&lt;a&gt;おすすめ公園名①&lt;/a&gt;" style="text;spacingTop=-5;whiteSpace=wrap;align=left;fontSize=17;rounded=1;fontColor=#000000;fontFamily=Shuei MaruGo B;" vertex="1" parent="1">
                    <mxGeometry x="-544" y="1109" width="353" height="20" as="geometry"/>
                </mxCell>
                <mxCell id="98" value="住所：&#10;駐車場：○○台／ベンチ：　　&#10;トイレ：普通トイレの有無、多目的トイレの有無&#10;遊具：&#10;自動販売機：" style="text;spacingTop=-5;whiteSpace=wrap;align=left;rounded=1;fontColor=#000000;" vertex="1" parent="1">
                    <mxGeometry x="-544" y="1135" width="353" height="85" as="geometry"/>
                </mxCell>
                <mxCell id="99" value="Article&#10;Picture" style="text;spacingTop=-5;align=center;verticalAlign=middle;fontSize=36;rounded=1;fontColor=#000000;" vertex="1" parent="1">
                    <mxGeometry x="-546" y="1230" width="360" height="200" as="geometry"/>
                </mxCell>
            </root>
        </mxGraphModel>
    </diagram>
</mxfile>